<svg xmlns="http://www.w3.org/2000/svg" xmlns:xlink="http://www.w3.org/1999/xlink" width="93.878" height="93.878" viewBox="0 0 93.878 93.878">
  <defs>
    <clipPath id="clip-path">
      <path id="Clip_12" data-name="Clip 12" d="M0,0H51.96V22.31H0Z" fill="#8ac440"/>
    </clipPath>
    <clipPath id="clip-path-2">
      <path id="Clip_15" data-name="Clip 15" d="M0,54.488H58.944V0H0Z" fill="#8ac440"/>
    </clipPath>
  </defs>
  <g id="Group_2891" data-name="Group 2891" transform="translate(-53.516 -5276.561)">
    <g id="Path_11389" data-name="Path 11389" transform="translate(54.516 5277.561)" fill="#f0fce1">
      <path d="M 45.93896484375 92.3779296875 C 39.66996383666992 92.3779296875 33.58822250366211 91.1500244140625 27.8626708984375 88.72831726074219 C 22.33269500732422 86.38934326171875 17.36636543273926 83.04098510742188 13.10165882110596 78.77626800537109 C 8.836941719055176 74.51156616210938 5.488588333129883 69.54523468017578 3.149611949920654 64.0152587890625 C 0.7279060482978821 58.28970718383789 -0.4999998509883881 52.20796585083008 -0.4999998509883881 45.93896484375 C -0.4999998509883881 39.66996383666992 0.7279060482978821 33.58822250366211 3.149611949920654 27.8626708984375 C 5.488588333129883 22.33269500732422 8.836941719055176 17.36636543273926 13.10165882110596 13.10165882110596 C 17.36636543273926 8.836941719055176 22.33269500732422 5.488588333129883 27.8626708984375 3.149611949920654 C 33.58822250366211 0.7279060482978821 39.66996383666992 -0.4999998509883881 45.93896484375 -0.4999998509883881 C 52.20796585083008 -0.4999998509883881 58.28970718383789 0.7279060482978821 64.0152587890625 3.149611949920654 C 69.54523468017578 5.488588333129883 74.51156616210938 8.836941719055176 78.77626800537109 13.10165882110596 C 83.04098510742188 17.36636543273926 86.38934326171875 22.33269500732422 88.72831726074219 27.8626708984375 C 91.1500244140625 33.58822250366211 92.3779296875 39.66996383666992 92.3779296875 45.93896484375 C 92.3779296875 52.20796585083008 91.1500244140625 58.28970718383789 88.72831726074219 64.0152587890625 C 86.38934326171875 69.54523468017578 83.04098510742188 74.51156616210938 78.77626800537109 78.77626800537109 C 74.51156616210938 83.04098510742188 69.54523468017578 86.38934326171875 64.0152587890625 88.72831726074219 C 58.28970718383789 91.1500244140625 52.20796585083008 92.3779296875 45.93896484375 92.3779296875 Z" stroke="none"/>
      <path d="M 45.93896484375 0 C 20.56757354736328 0 0 20.56757354736328 0 45.93896484375 C 0 71.31034851074219 20.56757354736328 91.8779296875 45.93896484375 91.8779296875 C 71.31034851074219 91.8779296875 91.8779296875 71.31034851074219 91.8779296875 45.93896484375 C 91.8779296875 20.56757354736328 71.31034851074219 0 45.93896484375 0 M 45.93896484375 -1 C 52.27523803710938 -1 58.42251586914062 0.2412033081054688 64.21003723144531 2.689117431640625 C 69.79961395263672 5.053298950195312 74.81935119628906 8.437637329101562 79.12982940673828 12.74810028076172 C 83.44029235839844 17.05857849121094 86.82463073730469 22.07831573486328 89.18881225585938 27.66789245605469 C 91.63672637939453 33.45541381835938 92.8779296875 39.60269165039062 92.8779296875 45.93896484375 C 92.8779296875 52.27523803710938 91.63672637939453 58.42251586914062 89.18881225585938 64.21003723144531 C 86.82463073730469 69.79961395263672 83.44029235839844 74.81935119628906 79.12982940673828 79.12982940673828 C 74.81935119628906 83.44029235839844 69.79961395263672 86.82463073730469 64.21003723144531 89.18881225585938 C 58.42251586914062 91.63672637939453 52.27523803710938 92.8779296875 45.93896484375 92.8779296875 C 39.60269165039062 92.8779296875 33.45541381835938 91.63672637939453 27.66789245605469 89.18881225585938 C 22.07831573486328 86.82463073730469 17.05857849121094 83.44029235839844 12.74810028076172 79.12982940673828 C 8.437637329101562 74.81935119628906 5.053298950195312 69.79961395263672 2.689117431640625 64.21003723144531 C 0.2412033081054688 58.42251586914062 -1 52.27523803710938 -1 45.93896484375 C -1 39.60269165039062 0.2412033081054688 33.45541381835938 2.689117431640625 27.66789245605469 C 5.053298950195312 22.07831573486328 8.437637329101562 17.05857849121094 12.74810028076172 12.74810028076172 C 17.05857849121094 8.437637329101562 22.07831573486328 5.053298950195312 27.66789245605469 2.689117431640625 C 33.45541381835938 0.2412033081054688 39.60269165039062 -1 45.93896484375 -1 Z" stroke="none" fill="#f0fce1"/>
    </g>
    <g id="_4" data-name="4" transform="translate(70.983 5296.256)">
      <g id="customer_care" data-name="customer care" transform="translate(0 0)">
        <path id="Fill_1" data-name="Fill 1" d="M7.973,11.486a4.146,4.146,0,0,1-.023.47,1.443,1.443,0,0,1-.069.318.366.366,0,0,1-.119.176A.278.278,0,0,1,7.6,12.5H.763a1.406,1.406,0,0,1-.349-.038.449.449,0,0,1-.239-.147A.7.7,0,0,1,.041,12,2.884,2.884,0,0,1,0,11.457a4.461,4.461,0,0,1,.028-.536,1.466,1.466,0,0,1,.1-.4,1.8,1.8,0,0,1,.188-.342,3.4,3.4,0,0,1,.3-.365L2.673,7.537a11.185,11.185,0,0,0,.992-1.21,7.072,7.072,0,0,0,.588-1A3.812,3.812,0,0,0,4.543,4.5a3.6,3.6,0,0,0,.078-.721,1.812,1.812,0,0,0-.1-.594A1.412,1.412,0,0,0,4.24,2.7a1.3,1.3,0,0,0-.474-.328A1.733,1.733,0,0,0,3.1,2.25a2.974,2.974,0,0,0-.96.142A4.517,4.517,0,0,0,1.4,2.71a6,6,0,0,0-.528.323.661.661,0,0,1-.331.147A.2.2,0,0,1,.4,3.123a.406.406,0,0,1-.1-.19,2.221,2.221,0,0,1-.06-.355Q.221,2.354.22,2.032c0-.146.005-.267.014-.366A1.624,1.624,0,0,1,.276,1.41.774.774,0,0,1,.349,1.22a.987.987,0,0,1,.161-.2A2.18,2.18,0,0,1,.933.736,5.191,5.191,0,0,1,1.69.394a7.025,7.025,0,0,1,.992-.28A5.478,5.478,0,0,1,3.812,0,4.915,4.915,0,0,1,5.433.242,3.2,3.2,0,0,1,6.586.916,2.7,2.7,0,0,1,7.27,1.941,3.573,3.573,0,0,1,7.5,3.218a6.331,6.331,0,0,1-.11,1.177,4.613,4.613,0,0,1-.46,1.249,9.928,9.928,0,0,1-.983,1.48A23.711,23.711,0,0,1,4.263,9.009L2.875,10.479H7.56a.283.283,0,0,1,.169.057.446.446,0,0,1,.134.176,1.135,1.135,0,0,1,.083.313,3.339,3.339,0,0,1,.028.461" transform="translate(12.445 23.938)" fill="#8ac440"/>
        <path id="Fill_3" data-name="Fill 3" d="M6.228,12.4a5.3,5.3,0,0,1-.556-.025,1.589,1.589,0,0,1-.359-.07.37.37,0,0,1-.183-.119.272.272,0,0,1-.051-.166V9.8H.532A.728.728,0,0,1,.3,9.763a.314.314,0,0,1-.171-.152.985.985,0,0,1-.1-.342A4.364,4.364,0,0,1,0,8.676c0-.21,0-.382.013-.527a3.6,3.6,0,0,1,.046-.4A2.073,2.073,0,0,1,.151,7.4,3.3,3.3,0,0,1,.3,7.062L4,.331A.373.373,0,0,1,4.152.185a1.112,1.112,0,0,1,.308-.1,3.553,3.553,0,0,1,.5-.062C5.161.006,5.409,0,5.695,0c.325,0,.587.008.8.023A2.96,2.96,0,0,1,7.023.1a.78.78,0,0,1,.289.128A.23.23,0,0,1,7.4.408V7.8H8.46c.1,0,.182.078.252.232a2.053,2.053,0,0,1,.105.774,2.167,2.167,0,0,1-.1.736c-.064.167-.152.251-.262.251H7.4v2.222a.262.262,0,0,1-.055.166.411.411,0,0,1-.193.119,1.663,1.663,0,0,1-.359.07A5.346,5.346,0,0,1,6.228,12.4ZM5.061,2.155,1.929,7.8H5.08V2.155H5.061Z" transform="translate(21.502 24.1)" fill="#8ac440"/>
        <path id="Fill_5" data-name="Fill 5" d="M2.283,16.573a.573.573,0,0,1-.119.2.543.543,0,0,1-.207.123,1.58,1.58,0,0,1-.331.071,4.248,4.248,0,0,1-.5.024,4.055,4.055,0,0,1-.615-.038,1.028,1.028,0,0,1-.363-.114.276.276,0,0,1-.142-.2.592.592,0,0,1,.037-.28L5.534.427a.509.509,0,0,1,.11-.2A.5.5,0,0,1,5.847.1,1.481,1.481,0,0,1,6.182.023,4.556,4.556,0,0,1,6.682,0,4.035,4.035,0,0,1,7.3.038a.959.959,0,0,1,.354.114.279.279,0,0,1,.138.195.659.659,0,0,1-.028.28Z" transform="translate(30.739 22.325)" fill="#8ac440"/>
        <path id="Fill_7" data-name="Fill 7" d="M8.029,1.053q0,.275-.018.479c-.012.136-.029.263-.051.379a2.208,2.208,0,0,1-.087.333c-.037.1-.079.217-.129.337L3.831,11.951a.572.572,0,0,1-.143.2.606.606,0,0,1-.243.119,2.057,2.057,0,0,1-.4.056q-.243.015-.6.014a7.025,7.025,0,0,1-.771-.033,1.238,1.238,0,0,1-.418-.1.232.232,0,0,1-.142-.18.566.566,0,0,1,.064-.27L5.383,2.164h-5Q.192,2.164.1,1.9A2.618,2.618,0,0,1,0,1.072,3.724,3.724,0,0,1,.028.583,1.609,1.609,0,0,1,.106.246.453.453,0,0,1,.226.057.241.241,0,0,1,.386,0H7.45a.973.973,0,0,1,.275.033A.3.3,0,0,1,7.9.18.992.992,0,0,1,8,.5a3.832,3.832,0,0,1,.032.551" transform="translate(39.534 24.157)" fill="#8ac440"/>
        <path id="Fill_9" data-name="Fill 9" d="M.419,14.787,0,12.225A23.77,23.77,0,0,0,17.15,0l2.322,1.208A26.408,26.408,0,0,1,.419,14.787" transform="translate(36.579 37.575)" fill="#8ac440"/>
        <g id="Group_13" data-name="Group 13" transform="translate(3.491)">
          <g id="Group_13-2" data-name="Group 13" clip-path="url(#clip-path)">
            <path id="Fill_11" data-name="Fill 11" d="M2.591,22.31,0,21.9A26.093,26.093,0,0,1,25.98,0,26.084,26.084,0,0,1,51.96,21.9l-2.591.407A23.482,23.482,0,0,0,25.98,2.595,23.49,23.49,0,0,0,2.591,22.31" transform="translate(0 0)" fill="#8ac440"/>
          </g>
        </g>
        <path id="Clip_15-3" data-name="Clip 15" d="M0,0Z" fill="#8ac440"/>
        <g id="Mask_Group_1" data-name="Mask Group 1" clip-path="url(#clip-path-2)">
          <path id="Fill_14" data-name="Fill 14" d="M8.938,18.019H0V0H8.938V18.018ZM2.624,2.595V15.424H6.316V2.595Z" transform="translate(0 20.807)" fill="#8ac440"/>
          <path id="Fill_16" data-name="Fill 16" d="M8.938,18.019H0V0H8.938V18.018ZM2.624,2.595V15.424H6.316V2.595Z" transform="translate(50.005 20.807)" fill="#8ac440"/>
          <path id="Fill_17" data-name="Fill 17" d="M10.7,7.465H0V0H10.7V7.464ZM2.624,2.595V4.871H8.077V2.595Z" transform="translate(26.745 47.023)" fill="#8ac440"/>
        </g>
      </g>
    </g>
    <g id="_4-2" data-name="4" transform="translate(70.983 5296.256)">
      <g id="customer_care-2" data-name="customer care" transform="translate(0 0)">
        <path id="Fill_1-2" data-name="Fill 1" d="M7.973,11.486a4.146,4.146,0,0,1-.023.47,1.443,1.443,0,0,1-.069.318.366.366,0,0,1-.119.176A.278.278,0,0,1,7.6,12.5H.763a1.406,1.406,0,0,1-.349-.038.449.449,0,0,1-.239-.147A.7.7,0,0,1,.041,12,2.884,2.884,0,0,1,0,11.457a4.461,4.461,0,0,1,.028-.536,1.466,1.466,0,0,1,.1-.4,1.8,1.8,0,0,1,.188-.342,3.4,3.4,0,0,1,.3-.365L2.673,7.537a11.185,11.185,0,0,0,.992-1.21,7.072,7.072,0,0,0,.588-1A3.812,3.812,0,0,0,4.543,4.5a3.6,3.6,0,0,0,.078-.721,1.812,1.812,0,0,0-.1-.594A1.412,1.412,0,0,0,4.24,2.7a1.3,1.3,0,0,0-.474-.328A1.733,1.733,0,0,0,3.1,2.25a2.974,2.974,0,0,0-.96.142A4.517,4.517,0,0,0,1.4,2.71a6,6,0,0,0-.528.323.661.661,0,0,1-.331.147A.2.2,0,0,1,.4,3.123a.406.406,0,0,1-.1-.19,2.221,2.221,0,0,1-.06-.355Q.221,2.354.22,2.032c0-.146.005-.267.014-.366A1.624,1.624,0,0,1,.276,1.41.774.774,0,0,1,.349,1.22a.987.987,0,0,1,.161-.2A2.18,2.18,0,0,1,.933.736,5.191,5.191,0,0,1,1.69.394a7.025,7.025,0,0,1,.992-.28A5.478,5.478,0,0,1,3.812,0,4.915,4.915,0,0,1,5.433.242,3.2,3.2,0,0,1,6.586.916,2.7,2.7,0,0,1,7.27,1.941,3.573,3.573,0,0,1,7.5,3.218a6.331,6.331,0,0,1-.11,1.177,4.613,4.613,0,0,1-.46,1.249,9.928,9.928,0,0,1-.983,1.48A23.711,23.711,0,0,1,4.263,9.009L2.875,10.479H7.56a.283.283,0,0,1,.169.057.446.446,0,0,1,.134.176,1.135,1.135,0,0,1,.083.313,3.339,3.339,0,0,1,.028.461" transform="translate(12.445 23.938)" fill="#8ac440"/>
        <path id="Fill_3-2" data-name="Fill 3" d="M6.228,12.4a5.3,5.3,0,0,1-.556-.025,1.589,1.589,0,0,1-.359-.07.37.37,0,0,1-.183-.119.272.272,0,0,1-.051-.166V9.8H.532A.728.728,0,0,1,.3,9.763a.314.314,0,0,1-.171-.152.985.985,0,0,1-.1-.342A4.364,4.364,0,0,1,0,8.676c0-.21,0-.382.013-.527a3.6,3.6,0,0,1,.046-.4A2.073,2.073,0,0,1,.151,7.4,3.3,3.3,0,0,1,.3,7.062L4,.331A.373.373,0,0,1,4.152.185a1.112,1.112,0,0,1,.308-.1,3.553,3.553,0,0,1,.5-.062C5.161.006,5.409,0,5.695,0c.325,0,.587.008.8.023A2.96,2.96,0,0,1,7.023.1a.78.78,0,0,1,.289.128A.23.23,0,0,1,7.4.408V7.8H8.46c.1,0,.182.078.252.232a2.053,2.053,0,0,1,.105.774,2.167,2.167,0,0,1-.1.736c-.064.167-.152.251-.262.251H7.4v2.222a.262.262,0,0,1-.055.166.411.411,0,0,1-.193.119,1.663,1.663,0,0,1-.359.07A5.346,5.346,0,0,1,6.228,12.4ZM5.061,2.155,1.929,7.8H5.08V2.155H5.061Z" transform="translate(21.502 24.1)" fill="#8ac440"/>
        <path id="Fill_5-2" data-name="Fill 5" d="M2.283,16.573a.573.573,0,0,1-.119.2.543.543,0,0,1-.207.123,1.58,1.58,0,0,1-.331.071,4.248,4.248,0,0,1-.5.024,4.055,4.055,0,0,1-.615-.038,1.028,1.028,0,0,1-.363-.114.276.276,0,0,1-.142-.2.592.592,0,0,1,.037-.28L5.534.427a.509.509,0,0,1,.11-.2A.5.5,0,0,1,5.847.1,1.481,1.481,0,0,1,6.182.023,4.556,4.556,0,0,1,6.682,0,4.035,4.035,0,0,1,7.3.038a.959.959,0,0,1,.354.114.279.279,0,0,1,.138.195.659.659,0,0,1-.028.28Z" transform="translate(30.739 22.325)" fill="#8ac440"/>
        <path id="Fill_7-2" data-name="Fill 7" d="M8.029,1.053q0,.275-.018.479c-.012.136-.029.263-.051.379a2.208,2.208,0,0,1-.087.333c-.037.1-.079.217-.129.337L3.831,11.951a.572.572,0,0,1-.143.2.606.606,0,0,1-.243.119,2.057,2.057,0,0,1-.4.056q-.243.015-.6.014a7.025,7.025,0,0,1-.771-.033,1.238,1.238,0,0,1-.418-.1.232.232,0,0,1-.142-.18.566.566,0,0,1,.064-.27L5.383,2.164h-5Q.192,2.164.1,1.9A2.618,2.618,0,0,1,0,1.072,3.724,3.724,0,0,1,.028.583,1.609,1.609,0,0,1,.106.246.453.453,0,0,1,.226.057.241.241,0,0,1,.386,0H7.45a.973.973,0,0,1,.275.033A.3.3,0,0,1,7.9.18.992.992,0,0,1,8,.5a3.832,3.832,0,0,1,.032.551" transform="translate(39.534 24.157)" fill="#8ac440"/>
        <path id="Fill_9-2" data-name="Fill 9" d="M.419,14.787,0,12.225A23.77,23.77,0,0,0,17.15,0l2.322,1.208A26.408,26.408,0,0,1,.419,14.787" transform="translate(36.579 37.575)" fill="#8ac440"/>
        <g id="Group_13-3" data-name="Group 13" transform="translate(3.491)">
          <g id="Group_13-4" data-name="Group 13" clip-path="url(#clip-path)">
            <path id="Fill_11-2" data-name="Fill 11" d="M2.591,22.31,0,21.9A26.093,26.093,0,0,1,25.98,0,26.084,26.084,0,0,1,51.96,21.9l-2.591.407A23.482,23.482,0,0,0,25.98,2.595,23.49,23.49,0,0,0,2.591,22.31" transform="translate(0 0)" fill="#8ac440"/>
          </g>
        </g>
        <path id="Clip_15-4" data-name="Clip 15" d="M0,0Z" fill="#8ac440"/>
        <g id="Mask_Group_1-2" data-name="Mask Group 1" clip-path="url(#clip-path-2)">
          <path id="Fill_14-2" data-name="Fill 14" d="M8.938,18.019H0V0H8.938V18.018ZM2.624,2.595V15.424H6.316V2.595Z" transform="translate(0 20.807)" fill="#8ac440"/>
          <path id="Fill_16-2" data-name="Fill 16" d="M8.938,18.019H0V0H8.938V18.018ZM2.624,2.595V15.424H6.316V2.595Z" transform="translate(50.005 20.807)" fill="#8ac440"/>
          <path id="Fill_17-2" data-name="Fill 17" d="M10.7,7.465H0V0H10.7V7.464ZM2.624,2.595V4.871H8.077V2.595Z" transform="translate(26.745 47.023)" fill="#8ac440"/>
        </g>
      </g>
    </g>
  </g>
</svg>
