<svg id="Group_2883" data-name="Group 2883" xmlns="http://www.w3.org/2000/svg" width="80.721" height="90.028" viewBox="0 0 80.721 90.028">
  <g id="Group_202" data-name="Group 202" transform="translate(0 0)">
    <path id="Path_7180" data-name="Path 7180" d="M.176,0H80.869V72.611H.176Zm0,0" transform="translate(-0.176)" fill="#f36a10"/>
    <path id="Path_7182" data-name="Path 7182" d="M211.926,1792.955v4.84h-5.153v-4.84H204.7v10.888h2.092v-5.082h5.153v3.906a1.255,1.255,0,0,0,.126.6.859.859,0,0,0,.337.347,1.019,1.019,0,0,0,.421.166,1.891,1.891,0,0,0,.393.046h.8V1792.94h-2.092Zm0,0" transform="translate(-196.439 -1715.187)" fill="#f36a10"/>
    <path id="Path_7183" data-name="Path 7183" d="M1099.822,1803.844v-10.888h-2.036l-4.086,8.053-4.156-8.068h-2.064v10.888h1.067v-8.446l4.381,8.446h.548l4.268-8.37v7.209a1.262,1.262,0,0,0,.141.6,1.069,1.069,0,0,0,.758.527,2.069,2.069,0,0,0,.407.046Zm0,0" transform="translate(-1043.588 -1715.187)" fill="#f36a10"/>
    <path id="Path_7184" data-name="Path 7184" d="M1451.683,1798.86l-5.21-11.129h-.617l-5.336,11.129h1.222l1.656-3.454h3.777l-.519-1.116h-2.724l1.756-3.665,3.44,7.359a1.615,1.615,0,0,0,.505.664,1.352,1.352,0,0,0,.772.211Zm0,0" transform="translate(-1382.377 -1710.203)" fill="#f36a10"/>
    <path id="Path_7185" data-name="Path 7185" d="M1773.956,1793.282a.984.984,0,0,0-.2.015.643.643,0,0,0-.211.091.509.509,0,0,0-.168.181.647.647,0,0,0-.071.3v7.012l-6.936-7.6h-1.334v10.888h1.222v-8.2l7.048,7.932a1.339,1.339,0,0,0,1.068.271h.14v-10.888Zm0,0" transform="translate(-1693.797 -1715.514)" fill="#f36a10"/>
    <path id="Path_7186" data-name="Path 7186" d="M489.953,1787.73h-.6L484,1798.86h1.222l3.945-8.234,1.713,3.665h-2.738l-.534,1.1h3.8l1.208,2.594a1.619,1.619,0,0,0,.505.664,1.367,1.367,0,0,0,.772.2h1.278Zm0,0" transform="translate(-464.469 -1710.203)" fill="#f36a10"/>
    <path id="Path_7187" data-name="Path 7187" d="M815.439,1803.3l-3.075-4.1H811.3v4.976h-2.078v-10.888h3.833a6.17,6.17,0,0,1,2.611.543,2.534,2.534,0,0,1,1.474,2.368c0,1.01-.548,2.187-2.527,2.79l3.988,5.188h-1.615a2.5,2.5,0,0,1-.73-.136A2.87,2.87,0,0,1,815.439,1803.3Zm-4.142-9.063v4.117h.969a3.423,3.423,0,0,0,1.587-.377,1.971,1.971,0,0,0-.084-3.544,2.339,2.339,0,0,0-1.067-.211h-1.4Zm0,0" transform="translate(-776.56 -1715.515)" fill="#f36a10"/>
    <path id="Path_7188" data-name="Path 7188" d="M.176,1927.17H.485v2.1a1.319,1.319,0,0,1,1.053-.512,1.376,1.376,0,0,1,1.292,1.553,1.584,1.584,0,0,1-1.629,1.749,2.449,2.449,0,0,1-1.025-.241Zm.323,4.418a1.84,1.84,0,0,0,.716.151,1.305,1.305,0,0,0,1.306-1.311v-.092c0-.754-.421-1.282-1.011-1.282a1.282,1.282,0,0,0-1.011.618Zm0,0" transform="translate(-0.176 -1843.596)" fill="#f36a10"/>
    <path id="Path_7189" data-name="Path 7189" d="M77.215,1969.881h-.309l1.011-2.247L76.7,1965.07h.323l1.053,2.232,1.011-2.232h.323Zm0,0" transform="translate(-73.606 -1879.853)" fill="#f36a10"/>
  </g>
  <path id="Path_7190" data-name="Path 7190" d="M456.77,505.481v5.293a2.358,2.358,0,1,1-4.7,0V484.746H447.5v30.4h13.831v-9.681H456.77ZM422.5,510.729a2.363,2.363,0,1,1-4.7.03v-5.293h-4.563v4.388c0,2.2,1.8,5.746,6.908,5.746s6.908-2.714,6.908-5.746V484.746H422.5Zm17.13-25.983H430.5v30.4h9.127c3.412,0,4.563-2.428,4.563-3.981v-9.093a3.137,3.137,0,0,0-3-2.986c1.8,0,3-2.684,3-4.192v-5.188A4.851,4.851,0,0,0,439.626,484.746Zm-1.8,27.928h-2.766v-12.26h2.766c1.8,0,1.8,1.4,1.8,6.168S439.626,512.675,437.828,512.675Zm-.281-14.824-2.485-.015V487.626h2.485c1.671,0,2.078.377,2.078,5.142S439.218,497.851,437.547,497.851Zm-22.03,4.313a2.9,2.9,0,1,0-2.64-2.941v.045A2.777,2.777,0,0,0,415.517,502.164Zm4.212-17.418H411.3l4.212,10.511Zm0,0" transform="translate(-394.709 -463.725)" fill="#fff"/>
</svg>
