<svg xmlns="http://www.w3.org/2000/svg" width="91.878" height="91.878" viewBox="0 0 91.878 91.878">
  <g id="Group_10438" data-name="Group 10438" transform="translate(-1480 -5338)">
    <path id="Path_11451" data-name="Path 11451" d="M45.939,0A45.939,45.939,0,1,1,0,45.939,45.939,45.939,0,0,1,45.939,0Z" transform="translate(1480 5338)" fill="#f0fce1"/>
    <g id="Group_2950" data-name="Group 2950" transform="translate(550.355 73)">
      <path id="Path_11452" data-name="Path 11452" d="M210.886,306.25h1.773a.952.952,0,0,1,.886.886.886.886,0,0,1-.886.886h-1.773a.952.952,0,0,1-.886-.886A.886.886,0,0,1,210.886,306.25Z" transform="translate(751.054 5006.908)" fill="#8ac440" stroke="#8ac440" stroke-width="1"/>
      <path id="Path_11453" data-name="Path 11453" d="M140.233,118,137.4,103.821a2.658,2.658,0,0,0-2.606-2.136h-8.3V90.163a2.667,2.667,0,0,0-2.659-2.659H90.154A2.667,2.667,0,0,0,87.5,90.163v28.363a2.667,2.667,0,0,0,2.659,2.659h.886a5.318,5.318,0,0,0,10.636,0h25.7a5.318,5.318,0,0,0,10.636,0v-.036a2.612,2.612,0,0,0,1.666-.939,2.643,2.643,0,0,0,.55-2.207ZM96.359,124.73a3.545,3.545,0,1,1,2.507-1.038A3.547,3.547,0,0,1,96.359,124.73Zm28.363-5.318H101.367a5.309,5.309,0,0,0-10.016,0h-1.2a.889.889,0,0,1-.886-.886V90.163a.889.889,0,0,1,.886-.886h33.681a.889.889,0,0,1,.886.886Zm12.391-7.977H130.04V107h6.187Zm-4.414,13.3a3.545,3.545,0,1,1,2.507-1.038A3.547,3.547,0,0,1,132.7,124.73Zm5.611-5.646a.819.819,0,0,1-.6.319,5.312,5.312,0,0,0-10.016.009h-1.2V103.458h8.3a.885.885,0,0,1,.869.709l.213,1.064H130.04A1.778,1.778,0,0,0,128.267,107v4.432a1.778,1.778,0,0,0,1.773,1.773h7.427l1.028,5.141h0a.877.877,0,0,1-.186.736Z" transform="translate(861.149 5203.496)" fill="#8ac440" stroke="#8ac440" stroke-width="1"/>
      <path id="Path_11454" data-name="Path 11454" d="M202.363,157.5H184.636a.889.889,0,0,0-.886.886v17.727a.889.889,0,0,0,.886.886h17.727a.889.889,0,0,0,.886-.886V158.386A.889.889,0,0,0,202.363,157.5Zm-7.091,1.773v3.661l-1.285-.851a.854.854,0,0,0-.975,0l-1.285.851v-3.661Zm6.2,15.954H185.523V159.273h4.432v5.318a.872.872,0,0,0,.47.78.854.854,0,0,0,.9-.044l2.172-1.445,2.172,1.445a.884.884,0,0,0,1.374-.736v-5.318h4.432Z" transform="translate(774.645 5140.59)" fill="#8ac440" stroke="#8ac440" stroke-width="1"/>
    </g>
  </g>
</svg>
