<svg xmlns="http://www.w3.org/2000/svg" width="91.878" height="91.878" viewBox="0 0 91.878 91.878">
  <g id="Group_2952" data-name="Group 2952" transform="translate(-495.516 -5271.552)">
    <path id="Path_11449" data-name="Path 11449" d="M45.939,0A45.939,45.939,0,1,1,0,45.939,45.939,45.939,0,0,1,45.939,0Z" transform="translate(495.516 5271.552)" fill="#f0fce1"/>
    <g id="Group_2951" data-name="Group 2951" transform="translate(422.216 5227.991)">
      <path id="Path_11474" data-name="Path 11474" d="M149.505,86.395a.861.861,0,0,0-.391-.563.872.872,0,0,0-.679-.1c-.038.01-.073.015-.11.025V72.246a5.538,5.538,0,0,0-5.53-5.531H93.448a5.538,5.538,0,0,0-5.533,5.531V99.252a5.538,5.538,0,0,0,5.533,5.531h25.829a20.181,20.181,0,0,0,14.146,12.487.844.844,0,0,0,.23.032.862.862,0,0,0,.23-.032,20.2,20.2,0,0,0,13.763-11.608c3.919-8.811,1.945-18.846,1.858-19.268ZM93.449,103.053a3.8,3.8,0,0,1-3.8-3.8V72.246a3.8,3.8,0,0,1,3.8-3.8h49.346a3.8,3.8,0,0,1,3.8,3.8V86.085c-8.644,1.232-12.139-6.159-12.286-6.481a.867.867,0,0,0-.74-.507.856.856,0,0,0-.793.421c-5.6,9.409-13.493,6.634-13.82,6.514a.868.868,0,0,0-1.152.646,36.966,36.966,0,0,0,.86,16.378H93.448Zm52.616,1.906a18.5,18.5,0,0,1-12.412,10.579,18.6,18.6,0,0,1-12.955-11.9c-.008-.024-.013-.049-.024-.073-2.345-6.378-1.684-13.193-1.327-15.643,2.482.526,9.076,1.063,14.131-6.3a13.3,13.3,0,0,0,14.145,6.066l.332-.067c.378,2.6,1.159,10.479-1.89,17.334Z" transform="translate(0)" fill="#8ac440" stroke="#8ac440" stroke-width="1"/>
      <path id="Path_11475" data-name="Path 11475" d="M424.851,240.131h-.873v-3.387a6.353,6.353,0,0,0-12.705,0v3.387H410.4a.867.867,0,0,0-.867.866V253.67a.868.868,0,0,0,.867.867h14.452a.868.868,0,0,0,.867-.867V241a.867.867,0,0,0-.866-.866Zm-11.845-3.387a4.619,4.619,0,1,1,9.238,0v3.387h-9.238ZM423.985,252.8H411.266V241.862h12.718Z" transform="translate(-283.475 -144.266)" fill="#8ac440" stroke="#8ac440" stroke-width="1"/>
      <path id="Path_11476" data-name="Path 11476" d="M459.408,336.141a2.856,2.856,0,0,0-5.712,0,2.824,2.824,0,0,0,.713,1.875l-.7,3.722a.868.868,0,0,0,.852,1.025h3.979a.867.867,0,0,0,.852-1.024l-.7-3.726a2.83,2.83,0,0,0,.709-1.872Zm-3.8,4.891.592-3.153a.81.81,0,0,0,0-.18.571.571,0,0,0-.078-.337.871.871,0,0,0-.036-.082.844.844,0,0,0-.178-.2c-.014-.012-.021-.029-.035-.04a1.124,1.124,0,1,1,1.805-.893,1.11,1.11,0,0,1-.44.892,102.7,102.7,0,0,0-.2.234.837.837,0,0,0-.059.135.853.853,0,0,0-.057.171.839.839,0,0,0,0,.171.8.8,0,0,0,0,.133l.59,3.154h-1.892Z" transform="translate(-322.4 -234.957)" fill="#8ac440" stroke="#8ac440" stroke-width="1"/>
      <path id="Path_11477" data-name="Path 11477" d="M146.668,90.918a8.289,8.289,0,0,0-3.742.92,8.392,8.392,0,1,0,0,14.943,8.289,8.289,0,0,0,3.742.92,8.392,8.392,0,1,0,0-16.783Zm-7.526,15.052a6.661,6.661,0,1,1,2.043-12.963,8.279,8.279,0,0,0,0,12.6,6.626,6.626,0,0,1-2.043.358Zm7.526,0a6.66,6.66,0,1,1,6.659-6.66A6.667,6.667,0,0,1,146.668,105.97Z" transform="translate(-37.753 -21.333)" fill="#8ac440" stroke="#8ac440" stroke-width="1"/>
      <path id="Path_11478" data-name="Path 11478" d="M277.69,332.77h-2.2a.882.882,0,1,0,0,1.763h2.2a.882.882,0,1,0,0-1.763Z" transform="translate(-164.55 -234.503)" fill="#8ac440" stroke="#8ac440" stroke-width="1"/>
      <path id="Path_11479" data-name="Path 11479" d="M234.412,332.77h-2.59a.882.882,0,1,0,0,1.763h2.59a.882.882,0,1,0,0-1.763Z" transform="translate(-126.063 -234.503)" fill="#8ac440" stroke="#8ac440" stroke-width="1"/>
      <path id="Path_11480" data-name="Path 11480" d="M190.759,332.77h-2.587a.882.882,0,1,0,0,1.763h2.587a.882.882,0,1,0,0-1.763Z" transform="translate(-87.589 -234.503)" fill="#8ac440" stroke="#8ac440" stroke-width="1"/>
      <path id="Path_11481" data-name="Path 11481" d="M149.97,332.77h-2.2a.882.882,0,1,0,0,1.763h2.2a.882.882,0,1,0,0-1.763Z" transform="translate(-51.977 -234.503)" fill="#8ac440" stroke="#8ac440" stroke-width="1"/>
      <path id="Path_11482" data-name="Path 11482" d="M277.69,294.07h-2.2a.882.882,0,0,0,0,1.763h2.2a.882.882,0,0,0,0-1.763Z" transform="translate(-164.55 -200.392)" fill="#8ac440" stroke="#8ac440" stroke-width="1"/>
      <path id="Path_11483" data-name="Path 11483" d="M234.412,294.07h-2.59a.882.882,0,0,0,0,1.763h2.59a.882.882,0,1,0,0-1.763Z" transform="translate(-126.063 -200.392)" fill="#8ac440" stroke="#8ac440" stroke-width="1"/>
      <path id="Path_11484" data-name="Path 11484" d="M190.759,294.07h-2.587a.882.882,0,0,0,0,1.763h2.587a.882.882,0,0,0,0-1.763Z" transform="translate(-87.589 -200.392)" fill="#8ac440" stroke="#8ac440" stroke-width="1"/>
      <path id="Path_11485" data-name="Path 11485" d="M149.97,294.07h-2.2a.882.882,0,0,0,0,1.763h2.2a.882.882,0,0,0,0-1.763Z" transform="translate(-51.977 -200.392)" fill="#8ac440" stroke="#8ac440" stroke-width="1"/>
      <path id="Path_11486" data-name="Path 11486" d="M242.163,123.467v-1.458a1.254,1.254,0,0,1,.375.279,2.012,2.012,0,0,1,.254.5l1.874-.3a2.143,2.143,0,0,0-.779-1.27,3.1,3.1,0,0,0-1.726-.534v-.5h-.736v.5a2.822,2.822,0,0,0-1.867.668,1.994,1.994,0,0,0-.627,1.5,1.925,1.925,0,0,0,1.051,1.774,9.459,9.459,0,0,0,1.444.49v1.78a1.273,1.273,0,0,1-.506-.393,1.916,1.916,0,0,1-.244-.721l-2.036.237a3.086,3.086,0,0,0,.272.859,2.359,2.359,0,0,0,.517.662,2.442,2.442,0,0,0,.8.481,4.641,4.641,0,0,0,1.2.24v.952h.736v-.952a3.967,3.967,0,0,0,1.048-.164,2.511,2.511,0,0,0,.809-.446,2.465,2.465,0,0,0,.625-.767,2.111,2.111,0,0,0,.245-1.009,1.986,1.986,0,0,0-.681-1.548,5.438,5.438,0,0,0-2.045-.862Zm-.736-.187a.943.943,0,0,1-.447-.276.614.614,0,0,1-.128-.387.572.572,0,0,1,.126-.37.937.937,0,0,1,.448-.264Zm1.363,3.352a1.169,1.169,0,0,1-.627.316v-1.618a1.543,1.543,0,0,1,.658.371.665.665,0,0,1,.168.438.716.716,0,0,1-.2.493Z" transform="translate(-132.85 -47.129)" fill="#8ac440" stroke="#8ac440" stroke-width="1"/>
    </g>
  </g>
</svg>
