<svg xmlns="http://www.w3.org/2000/svg" width="169.662" height="48.736" viewBox="0 0 169.662 48.736">
  <g id="Group_10437" data-name="Group 10437" transform="translate(-331.5 -5527.166)">
    <g id="LOGO" transform="translate(331.5 5527.168)">
      <path id="Path_27" data-name="Path 27" d="M86.831,46.62H48.369a5.052,5.052,0,0,0-5.052,5.052V73.764h0V68.436L43.28,90.088a5.059,5.059,0,0,0,5.049,5.07h0a7.417,7.417,0,0,0,7.431-7.4l.029-13.969V68.462l-.019.008V64.125a5.052,5.052,0,0,1,5.052-5.052H79.664V54.037a7.4,7.4,0,0,1,7.4-7.4c.109,0,.216.011.322.016A5.484,5.484,0,0,0,86.831,46.62Z" transform="translate(-43.28 -46.62)" fill="#fff"/>
    </g>
    <g id="Group_24" data-name="Group 24" transform="translate(331.505 5527.166)">
      <g id="Group_23" data-name="Group 23" transform="translate(0 0)">
        <g id="Group_20" data-name="Group 20" transform="translate(62.854 2.467)">
          <g id="Group_1" data-name="Group 1" transform="translate(1.748)">
            <path id="Path_1" data-name="Path 1" d="M293.086,62.376h2.7a.787.787,0,0,1,.557.152.724.724,0,0,1,.152.522v2.326a.627.627,0,0,1-.709.709h-2.7a.327.327,0,0,0-.37.37v12.4c0,.472-.248.709-.741.709h-2.832a.627.627,0,0,1-.709-.709V66.453c0-.248-.136-.37-.4-.37h-1.551a.627.627,0,0,1-.709-.709V63.048a.713.713,0,0,1,.152-.538.853.853,0,0,1,.557-.136h1.551c.269,0,.4-.123.4-.37v-.639a5.567,5.567,0,0,1,1.4-4.079,5.462,5.462,0,0,1,4.06-1.415h1.921a.713.713,0,0,1,.538.152.782.782,0,0,1,.136.522V58.87c0,.472-.224.709-.674.709h-1.247a1.87,1.87,0,0,0-1.465.456,2.377,2.377,0,0,0-.389,1.535v.437A.33.33,0,0,0,293.086,62.376Z" transform="translate(-285.77 -55.87)" fill="#fff"/>
            <path id="Path_2" data-name="Path 2" d="M336.38,59.478V56.544a.6.6,0,0,1,.674-.674h2.931c.45,0,.674.213.674.639v2.965a.6.6,0,0,1-.674.674h-2.931A.592.592,0,0,1,336.38,59.478Zm0,19.38V63.085c0-.472.224-.709.674-.709h2.9a.626.626,0,0,1,.709.709V78.858a.561.561,0,0,1-.674.709h-2.9A.627.627,0,0,1,336.38,78.858Z" transform="translate(-322.896 -55.87)" fill="#fff"/>
            <path id="Path_3" data-name="Path 3" d="M371.7,97.47h-2.864a.627.627,0,0,1-.709-.709V80.989a.627.627,0,0,1,.709-.709H371.7a.626.626,0,0,1,.709.709V82.1h.136q.739-1.818,3.3-1.82h1.079q5.291,0,5.291,5.494V96.762c0,.472-.248.709-.741.709h-2.835a.627.627,0,0,1-.709-.709V85.976a1.679,1.679,0,0,0-1.99-1.99h-1.212q-2.326,0-2.326,2.56V96.759A.625.625,0,0,1,371.7,97.47Z" transform="translate(-346.187 -73.776)" fill="#fff"/>
            <path id="Path_4" data-name="Path 4" d="M447.17,97.47H439.72a5.638,5.638,0,0,1-4.111-1.415,5.439,5.439,0,0,1-1.449-4.079v-6.2a5.447,5.447,0,0,1,1.449-4.079,5.638,5.638,0,0,1,4.111-1.415h2.662a5.638,5.638,0,0,1,4.111,1.415,5.454,5.454,0,0,1,1.449,4.079v4.282a.627.627,0,0,1-.709.709h-8.459c-.269,0-.405.123-.405.37v.741a2.062,2.062,0,0,0,.456,1.5,2.121,2.121,0,0,0,1.535.456h6.807c.472,0,.709.248.709.741V96.8a.724.724,0,0,1-.152.522A.775.775,0,0,1,447.17,97.47Zm-8.393-9.57h4.583a.327.327,0,0,0,.37-.37V85.912a1.631,1.631,0,0,0-1.953-1.953h-1.415a1.631,1.631,0,0,0-1.953,1.953V87.53A.325.325,0,0,0,438.777,87.9Z" transform="translate(-394.624 -73.776)" fill="#fff"/>
            <path id="Path_5" data-name="Path 5" d="M502.316,62.376h2.7a.787.787,0,0,1,.557.152.724.724,0,0,1,.152.522v2.326a.627.627,0,0,1-.709.709h-2.7a.327.327,0,0,0-.37.37v12.4c0,.472-.248.709-.741.709h-2.832a.627.627,0,0,1-.709-.709V66.453c0-.248-.136-.37-.405-.37h-1.551a.627.627,0,0,1-.709-.709V63.048a.713.713,0,0,1,.152-.538.853.853,0,0,1,.557-.136h1.551c.269,0,.405-.123.405-.37v-.639a5.567,5.567,0,0,1,1.4-4.079,5.462,5.462,0,0,1,4.06-1.415h1.921a.713.713,0,0,1,.538.152.782.782,0,0,1,.136.522V58.87c0,.472-.224.709-.674.709H503.8a1.87,1.87,0,0,0-1.465.456,2.379,2.379,0,0,0-.386,1.535v.437A.326.326,0,0,0,502.316,62.376Z" transform="translate(-439.254 -55.87)" fill="#fff"/>
            <path id="Path_6" data-name="Path 6" d="M550.07,97.47h-.81a5.638,5.638,0,0,1-4.111-1.415,5.439,5.439,0,0,1-1.449-4.079v-6.2a5.447,5.447,0,0,1,1.449-4.079,5.638,5.638,0,0,1,4.111-1.415h7.785c.493,0,.741.234.741.709V96.762c0,.472-.248.709-.741.709h-2.832a.627.627,0,0,1-.709-.709V95.651h-.136a2.554,2.554,0,0,1-1.314,1.364A4.48,4.48,0,0,1,550.07,97.47Zm3.44-6.269V84.359c0-.248-.136-.37-.4-.37h-3.168a2.05,2.05,0,0,0-1.516.456,2.174,2.174,0,0,0-.437,1.535v5.8a2.186,2.186,0,0,0,.437,1.535,2.05,2.05,0,0,0,1.516.456h1.247Q553.51,93.763,553.51,91.2Z" transform="translate(-474.979 -73.776)" fill="#fff"/>
            <path id="Path_7" data-name="Path 7" d="M612.27,59.478V56.544a.6.6,0,0,1,.674-.674h2.931c.45,0,.674.213.674.639v2.965a.6.6,0,0,1-.674.674h-2.931A.592.592,0,0,1,612.27,59.478Zm0,19.38V63.085c0-.472.224-.709.674-.709h2.9a.626.626,0,0,1,.709.709V78.858a.562.562,0,0,1-.674.709h-2.9A.627.627,0,0,1,612.27,78.858Z" transform="translate(-525.28 -55.87)" fill="#fff"/>
            <path id="Path_8" data-name="Path 8" d="M647.593,97.47h-2.864a.627.627,0,0,1-.709-.709V80.989a.627.627,0,0,1,.709-.709h2.864a.626.626,0,0,1,.709.709v1.146h.136a2.634,2.634,0,0,1,1.313-1.383,4.39,4.39,0,0,1,1.988-.472h1.212c.45,0,.674.234.674.709v2.326a.787.787,0,0,1-.152.557.633.633,0,0,1-.522.117h-2.326q-2.326,0-2.326,2.63V96.764A.623.623,0,0,1,647.593,97.47Z" transform="translate(-548.571 -73.776)" fill="#fff"/>
          </g>
          <g id="Group_19" data-name="Group 19" transform="translate(0 27.959)">
            <g id="Group_14" data-name="Group 14" transform="translate(16.647)">
              <g id="Group_2" data-name="Group 2" transform="translate(30.36 3.856)">
                <path id="Path_9" data-name="Path 9" d="M467.838,183.388h-.97v-7.066a.913.913,0,0,0-.906-1.034.933.933,0,0,0-1.114,1.047c0,2.5,0,4.99-.005,7.487a13.519,13.519,0,0,1-.08,1.431,2.886,2.886,0,0,1-2.574,2.859,5.3,5.3,0,0,1-1.465-.043,3.279,3.279,0,0,1-2.9-2.6,5.386,5.386,0,0,1,1.164-4.6c.061-.075.12-.152.237-.3a6.345,6.345,0,0,0-1.02-.277,1.838,1.838,0,0,0-1.8,1.023,5.4,5.4,0,0,0-.759,2.7,5.013,5.013,0,0,0,4.036,5.531c.328.075.661.128.991.192h1.513c.133-.027.266-.067.4-.08a4.356,4.356,0,0,0,4.076-3.552c.115-.485.163-.986.245-1.521a2.175,2.175,0,0,0,.927.336v-1.532Z" transform="translate(-455.641 -175.284)" fill="#fff"/>
              </g>
              <g id="Group_3" data-name="Group 3" transform="translate(55.863 3.928)">
                <path id="Path_10" data-name="Path 10" d="M555.434,176.722a2.04,2.04,0,0,0-1.356-1.116,1.424,1.424,0,0,0-1.644.6,4.283,4.283,0,0,1,1.386,2.2,7.128,7.128,0,0,1,.141,2.885,5.222,5.222,0,0,1-.429,1.436,1.582,1.582,0,0,1-1.553.943h-.618v1.569h.453a3.665,3.665,0,0,0,3.714-2.544A8.372,8.372,0,0,0,556,178.9,5.471,5.471,0,0,0,555.434,176.722Z" transform="translate(-551.36 -175.553)" fill="#fff"/>
              </g>
              <g id="Group_4" data-name="Group 4" transform="translate(76.397 3.974)">
                <path id="Path_11" data-name="Path 11" d="M637.9,182.874c-.035.171-.069.341-.107.512a2.2,2.2,0,0,1-2.257,1.95c-2.355.048-4.713.013-7.106.013V183.8h2.414a.632.632,0,0,0-.027-.16,7.6,7.6,0,0,1-.5-5.587A2.7,2.7,0,0,1,633,175.768a11.6,11.6,0,0,1,2.3.027,2.623,2.623,0,0,1,2.435,2.48c.061.37.107.743.16,1.116Q637.9,181.138,637.9,182.874Zm-2-2.23a.2.2,0,0,1-.04,0c0-.568.021-1.135-.005-1.7a1.579,1.579,0,0,0-1.894-1.679,1.9,1.9,0,0,0-1.734,1.593,6.178,6.178,0,0,0,.112,3.464,1.9,1.9,0,0,0,2.443,1.444,1.052,1.052,0,0,0,1-.975C635.863,182.08,635.863,181.361,635.9,180.644Z" transform="translate(-628.43 -175.724)" fill="#fff"/>
              </g>
              <g id="Group_5" data-name="Group 5" transform="translate(17.84)">
                <path id="Path_12" data-name="Path 12" d="M410.091,160.81c.1.045.2.093.3.139a1.223,1.223,0,0,1,.709,1.393,1.247,1.247,0,0,1-1.247.954,1.267,1.267,0,0,1-1.191-1.028,1.245,1.245,0,0,1,.839-1.361l.282-.1Z" transform="translate(-408.649 -160.81)" fill="#fff"/>
              </g>
              <g id="Group_6" data-name="Group 6" transform="translate(81.019 0.08)">
                <path id="Path_13" data-name="Path 13" d="M647.221,161.11c.1.045.2.093.3.139a1.223,1.223,0,0,1,.709,1.393,1.248,1.248,0,0,1-1.247.954,1.265,1.265,0,0,1-1.191-1.028,1.245,1.245,0,0,1,.839-1.361l.282-.1Z" transform="translate(-645.779 -161.11)" fill="#fff"/>
              </g>
              <g id="Group_7" data-name="Group 7" transform="translate(4.335 3.843)">
                <path id="Path_14" data-name="Path 14" d="M376.136,177.846a2.528,2.528,0,0,0-2.342-2.47,11.719,11.719,0,0,0-2.446-.04,2.617,2.617,0,0,0-2.529,1.982,7.655,7.655,0,0,0,.392,5.84,1.114,1.114,0,0,1,.059.192h-4.111c-.552,0-.717-.115-.815-.671a6.925,6.925,0,0,1-.083-1.127c-.008-1.726,0-3.453-.005-5.182,0-.661-.248-1.018-.746-1.108a.959.959,0,0,0-1.258,1.039c-.005,2.1-.011,4.21.008,6.317,0,.346-.112.512-.429.576a2.061,2.061,0,0,1-.365.085c-1.151.005-2.3.045-3.506.045v1.593h.328c.781,0,1.564-.005,2.345,0a3.679,3.679,0,0,0,1.852-.442.437.437,0,0,1,.365,0,3.317,3.317,0,0,0,1.737.434c.757,0,1.511-.011,2.267-.011,2.331,0,4.665.027,7,0a2.263,2.263,0,0,0,2.387-2.233,15.245,15.245,0,0,0,.048-1.812C376.253,179.855,376.259,178.842,376.136,177.846Zm-1.934,4.441a1.1,1.1,0,0,1-1.17,1.058,1.907,1.907,0,0,1-2.331-1.617,6.251,6.251,0,0,1-.061-3.322,1.9,1.9,0,0,1,1.742-1.583,1.58,1.58,0,0,1,1.884,1.692c.024.565.005,1.132.005,1.7h.037C374.276,180.907,374.284,181.6,374.2,182.287Z" transform="translate(-357.96 -175.233)" fill="#fff"/>
              </g>
              <g id="Group_8" data-name="Group 8" transform="translate(64.117 0.29)">
                <path id="Path_15" data-name="Path 15" d="M587.637,173.648v1.559a6.087,6.087,0,0,1-2.385-.2,3.089,3.089,0,0,1-1.82-2.752,12.393,12.393,0,0,1-.061-1.508q-.008-2.893,0-5.784a2.747,2.747,0,0,0-1.031-2.342,1,1,0,0,1,.1-.192,1.61,1.61,0,0,1,2.7.485,3.923,3.923,0,0,1,.224,1.327c.021,2.4,0,4.788.019,7.183a3.786,3.786,0,0,0,.181,1.146,1.454,1.454,0,0,0,1.545,1.076Z" transform="translate(-582.34 -161.897)" fill="#fff"/>
              </g>
              <g id="Group_9" data-name="Group 9" transform="translate(34.724 1.369)">
                <path id="Path_16" data-name="Path 16" d="M474.5,167.181a1.233,1.233,0,0,1-1.226,1.228,1.23,1.23,0,1,1,0-2.459A1.239,1.239,0,0,1,474.5,167.181Z" transform="translate(-472.02 -165.95)" fill="#fff"/>
              </g>
              <g id="Group_10" data-name="Group 10" transform="translate(0 15.216)">
                <path id="Path_17" data-name="Path 17" d="M341.69,219.114a1.186,1.186,0,0,1,1.159-1.194,1.191,1.191,0,0,1,.005,2.382A1.186,1.186,0,0,1,341.69,219.114Z" transform="translate(-341.69 -217.92)" fill="#fff"/>
              </g>
              <g id="Group_11" data-name="Group 11" transform="translate(3.024 15.216)">
                <path id="Path_18" data-name="Path 18" d="M353.04,219.114a1.175,1.175,0,1,1,1.167,1.188A1.186,1.186,0,0,1,353.04,219.114Z" transform="translate(-353.04 -217.92)" fill="#fff"/>
              </g>
              <g id="Group_12" data-name="Group 12" transform="translate(43.727 15.216)">
                <path id="Path_19" data-name="Path 19" d="M508.16,219.124a1.175,1.175,0,0,1-1.172,1.178,1.191,1.191,0,0,1,.027-2.382A1.174,1.174,0,0,1,508.16,219.124Z" transform="translate(-505.81 -217.919)" fill="#fff"/>
              </g>
              <g id="Group_13" data-name="Group 13" transform="translate(46.751 15.216)">
                <path id="Path_20" data-name="Path 20" d="M519.51,219.131a1.177,1.177,0,0,1-1.18,1.17,1.191,1.191,0,1,1,.045-2.382A1.174,1.174,0,0,1,519.51,219.131Z" transform="translate(-517.16 -217.919)" fill="#fff"/>
              </g>
            </g>
            <g id="Group_15" data-name="Group 15" transform="translate(5.976 11.936)">
              <path id="Path_21" data-name="Path 21" d="M316.965,207.222H301.64V205.61h15Z" transform="translate(-301.64 -205.61)" fill="#fff"/>
            </g>
            <g id="Group_16" data-name="Group 16" transform="translate(85.818 12.016)">
              <path id="Path_22" data-name="Path 22" d="M609.215,207.522H601.31V205.91h7.737Z" transform="translate(-601.31 -205.91)" fill="#fff"/>
            </g>
            <g id="Group_17" data-name="Group 17" transform="translate(59.124 11.936)">
              <path id="Path_23" data-name="Path 23" d="M514.831,207.3l-13.631-.16-.08-1.532,13.663.08Z" transform="translate(-501.12 -205.61)" fill="#fff"/>
            </g>
            <g id="Group_18" data-name="Group 18" transform="translate(0 3.911)">
              <path id="Path_24" data-name="Path 24" d="M285.271,185.158v-1.636h-.49v-.45q0-3.289,0-6.581a.991.991,0,1,0-1.982,0q0,5.048.005,10.1a2.5,2.5,0,0,1-.051.6,2,2,0,0,1-2.254,1.417c-.432-.045-.858-.152-1.287-.232a1.6,1.6,0,0,0,.8.991,3.11,3.11,0,0,0,4.639-1.881,6.633,6.633,0,0,0,.125-1.2c.019-.362.005-.725.005-1.13h.49Z" transform="translate(-279.21 -175.489)" fill="#fff"/>
            </g>
          </g>
        </g>
        <g id="Group_22" data-name="Group 22">
          <g id="Group_21" data-name="Group 21">
            <path id="Path_25" data-name="Path 25" d="M86.832,95.194H48.354A5.053,5.053,0,0,1,43.3,90.14V87.79a5.053,5.053,0,0,1,5.054-5.054h26.02a5.053,5.053,0,0,0,5.054-5.054V54.014a7.4,7.4,0,0,1,7.4-7.4h0a5.053,5.053,0,0,1,5.054,5.054V90.142A5.054,5.054,0,0,1,86.832,95.194Z" transform="translate(-43.3 -46.61)" fill="#fff" opacity="0.6"/>
          </g>
          <circle id="Ellipse_1" data-name="Ellipse 1" cx="5.062" cy="5.062" r="5.062" transform="translate(19.196 19.183)" fill="#fff"/>
        </g>
      </g>
      <path id="Path_26" data-name="Path 26" d="M89.09,182.22" transform="translate(-76.89 -146.089)" fill="#fff"/>
    </g>
  </g>
</svg>
