<svg xmlns="http://www.w3.org/2000/svg" width="167.1" height="48" viewBox="0 0 167.1 48">
  <g id="Group_2845" data-name="Group 2845" transform="translate(-46 -53)">
    <g id="LOGO" transform="translate(46 53)">
      <g id="Group_24" data-name="Group 24" transform="translate(0.005 0)">
        <g id="Group_23" data-name="Group 23" transform="translate(0 0)">
          <g id="Group_20" data-name="Group 20" transform="translate(61.905 2.43)">
            <g id="Group_1" data-name="Group 1" transform="translate(1.721)">
              <path id="Path_1" data-name="Path 1" d="M292.976,62.278h2.656a.775.775,0,0,1,.548.15.713.713,0,0,1,.15.514v2.291a.618.618,0,0,1-.7.7h-2.656a.322.322,0,0,0-.365.365V78.511c0,.464-.244.7-.729.7h-2.789a.618.618,0,0,1-.7-.7V66.293c0-.244-.134-.365-.4-.365h-1.527a.618.618,0,0,1-.7-.7V62.939a.7.7,0,0,1,.15-.53.84.84,0,0,1,.548-.134H288c.265,0,.4-.121.4-.365v-.63a5.483,5.483,0,0,1,1.378-4.018,5.38,5.38,0,0,1,4-1.393h1.892a.7.7,0,0,1,.53.15.771.771,0,0,1,.134.514v2.291c0,.464-.22.7-.664.7h-1.228a1.841,1.841,0,0,0-1.443.449,2.341,2.341,0,0,0-.383,1.511v.43A.325.325,0,0,0,292.976,62.278Z" transform="translate(-285.77 -55.87)" fill="#2e2c73"/>
              <path id="Path_2" data-name="Path 2" d="M336.38,59.423V56.534a.586.586,0,0,1,.664-.664h2.887c.444,0,.664.21.664.63V59.42a.586.586,0,0,1-.664.664h-2.887A.583.583,0,0,1,336.38,59.423Zm0,19.088V62.976c0-.464.22-.7.664-.7H339.9a.617.617,0,0,1,.7.7V78.511a.553.553,0,0,1-.664.7h-2.855A.618.618,0,0,1,336.38,78.511Z" transform="translate(-323.099 -55.87)" fill="#2e2c73"/>
              <path id="Path_3" data-name="Path 3" d="M371.649,97.211h-2.821a.618.618,0,0,1-.7-.7V80.978a.618.618,0,0,1,.7-.7h2.821a.617.617,0,0,1,.7.7v1.094h.134q.728-1.791,3.254-1.792H376.8q5.211,0,5.211,5.411V96.513c0,.464-.244.7-.73.7h-2.792a.618.618,0,0,1-.7-.7V85.89a1.654,1.654,0,0,0-1.96-1.96h-1.194q-2.291,0-2.291,2.522V96.51A.616.616,0,0,1,371.649,97.211Z" transform="translate(-346.518 -73.875)" fill="#2e2c73"/>
              <path id="Path_4" data-name="Path 4" d="M446.973,97.211h-7.337a5.553,5.553,0,0,1-4.049-1.393A5.357,5.357,0,0,1,434.16,91.8V85.691a5.365,5.365,0,0,1,1.427-4.017,5.553,5.553,0,0,1,4.049-1.393h2.622a5.553,5.553,0,0,1,4.049,1.393,5.371,5.371,0,0,1,1.428,4.017v4.217a.618.618,0,0,1-.7.7H438.7c-.265,0-.4.121-.4.365V91.7a2.031,2.031,0,0,0,.449,1.477,2.09,2.09,0,0,0,1.512.449h6.7c.465,0,.7.244.7.729v2.191a.712.712,0,0,1-.15.514A.763.763,0,0,1,446.973,97.211Zm-8.266-9.426h4.513a.322.322,0,0,0,.365-.365V85.827a1.607,1.607,0,0,0-1.923-1.923h-1.393a1.607,1.607,0,0,0-1.923,1.923V87.42A.32.32,0,0,0,438.708,87.785Z" transform="translate(-395.221 -73.875)" fill="#2e2c73"/>
              <path id="Path_5" data-name="Path 5" d="M502.206,62.278h2.656a.775.775,0,0,1,.548.15.713.713,0,0,1,.15.514v2.291a.618.618,0,0,1-.7.7h-2.656a.322.322,0,0,0-.365.365V78.511c0,.464-.244.7-.729.7h-2.789a.618.618,0,0,1-.7-.7V66.293c0-.244-.134-.365-.4-.365H495.7a.618.618,0,0,1-.7-.7V62.939a.7.7,0,0,1,.15-.53.84.84,0,0,1,.548-.134h1.527c.265,0,.4-.121.4-.365v-.63A5.483,5.483,0,0,1,499,57.263a5.38,5.38,0,0,1,4-1.393h1.892a.7.7,0,0,1,.53.15.77.77,0,0,1,.134.514v2.291c0,.464-.22.7-.664.7h-1.228a1.842,1.842,0,0,0-1.443.449,2.343,2.343,0,0,0-.38,1.511v.43A.321.321,0,0,0,502.206,62.278Z" transform="translate(-440.096 -55.87)" fill="#2e2c73"/>
              <path id="Path_6" data-name="Path 6" d="M549.974,97.211h-.8a5.554,5.554,0,0,1-4.049-1.393A5.357,5.357,0,0,1,543.7,91.8V85.691a5.365,5.365,0,0,1,1.427-4.017,5.553,5.553,0,0,1,4.049-1.393h7.668c.485,0,.729.231.729.7V96.513c0,.464-.244.7-.729.7h-2.79a.618.618,0,0,1-.7-.7V95.418h-.134a2.515,2.515,0,0,1-1.294,1.344A4.412,4.412,0,0,1,549.974,97.211Zm3.388-6.175V84.3c0-.244-.134-.365-.4-.365h-3.12a2.019,2.019,0,0,0-1.493.449,2.14,2.14,0,0,0-.431,1.511V91.6a2.153,2.153,0,0,0,.431,1.511,2.019,2.019,0,0,0,1.493.449h1.228Q553.362,93.559,553.362,91.036Z" transform="translate(-476.017 -73.875)" fill="#2e2c73"/>
              <path id="Path_7" data-name="Path 7" d="M612.27,59.423V56.534a.586.586,0,0,1,.664-.664h2.886c.444,0,.664.21.664.63V59.42a.586.586,0,0,1-.664.664h-2.886A.583.583,0,0,1,612.27,59.423Zm0,19.088V62.976c0-.464.22-.7.664-.7h2.855a.617.617,0,0,1,.7.7V78.511a.553.553,0,0,1-.664.7h-2.855A.618.618,0,0,1,612.27,78.511Z" transform="translate(-526.593 -55.87)" fill="#2e2c73"/>
              <path id="Path_8" data-name="Path 8" d="M647.539,97.211h-2.821a.618.618,0,0,1-.7-.7V80.978a.618.618,0,0,1,.7-.7h2.821a.617.617,0,0,1,.7.7v1.128h.134a2.594,2.594,0,0,1,1.294-1.362,4.323,4.323,0,0,1,1.958-.464h1.194c.443,0,.664.231.664.7v2.291a.775.775,0,0,1-.15.548.624.624,0,0,1-.514.115h-2.291q-2.291,0-2.291,2.59v9.993A.614.614,0,0,1,647.539,97.211Z" transform="translate(-550.011 -73.875)" fill="#2e2c73"/>
            </g>
            <g id="Group_19" data-name="Group 19" transform="translate(0 27.537)">
              <g id="Group_14" data-name="Group 14" transform="translate(16.395)">
                <g id="Group_2" data-name="Group 2" transform="translate(29.902 3.798)">
                  <path id="Path_9" data-name="Path 9" d="M467.654,183.266H466.7v-6.959a.9.9,0,0,0-.892-1.018.919.919,0,0,0-1.1,1.031c0,2.459,0,4.915-.005,7.374a13.306,13.306,0,0,1-.079,1.409,2.843,2.843,0,0,1-2.535,2.816,5.225,5.225,0,0,1-1.443-.042,3.23,3.23,0,0,1-2.855-2.558,5.3,5.3,0,0,1,1.147-4.532c.06-.073.118-.15.234-.294a6.248,6.248,0,0,0-1.005-.273,1.81,1.81,0,0,0-1.771,1.008,5.321,5.321,0,0,0-.748,2.656,4.938,4.938,0,0,0,3.976,5.448c.323.073.651.126.976.189h1.49c.131-.026.262-.066.4-.079a4.291,4.291,0,0,0,4.015-3.5c.113-.478.16-.971.241-1.5a2.142,2.142,0,0,0,.913.331v-1.509Z" transform="translate(-455.641 -175.284)" fill="#8ac440"/>
                </g>
                <g id="Group_3" data-name="Group 3" transform="translate(55.02 3.869)">
                  <path id="Path_10" data-name="Path 10" d="M555.372,176.7a2.01,2.01,0,0,0-1.336-1.1,1.4,1.4,0,0,0-1.619.588,4.218,4.218,0,0,1,1.365,2.165,7.016,7.016,0,0,1,.139,2.842,5.142,5.142,0,0,1-.422,1.414,1.558,1.558,0,0,1-1.53.929h-.609v1.546h.446a3.61,3.61,0,0,0,3.658-2.506,8.245,8.245,0,0,0,.464-3.731A5.388,5.388,0,0,0,555.372,176.7Z" transform="translate(-551.36 -175.553)" fill="#8ac440"/>
                </g>
                <g id="Group_4" data-name="Group 4" transform="translate(75.243 3.914)">
                  <path id="Path_11" data-name="Path 11" d="M637.756,182.766c-.034.168-.068.336-.105.5a2.171,2.171,0,0,1-2.223,1.921c-2.32.047-4.642.013-7,.013v-1.53h2.377a.617.617,0,0,0-.026-.157,7.489,7.489,0,0,1-.5-5.5,2.654,2.654,0,0,1,2.65-2.246,11.431,11.431,0,0,1,2.262.026,2.583,2.583,0,0,1,2.4,2.443c.06.365.105.732.158,1.1Q637.757,181.057,637.756,182.766Zm-1.968-2.2a.2.2,0,0,1-.039,0c0-.559.021-1.118-.005-1.674a1.555,1.555,0,0,0-1.866-1.653,1.872,1.872,0,0,0-1.708,1.569,6.086,6.086,0,0,0,.11,3.411,1.868,1.868,0,0,0,2.406,1.422,1.036,1.036,0,0,0,.981-.96C635.751,181.984,635.751,181.276,635.788,180.57Z" transform="translate(-628.43 -175.724)" fill="#8ac440"/>
                </g>
                <g id="Group_5" data-name="Group 5" transform="translate(17.571)">
                  <path id="Path_12" data-name="Path 12" d="M410.069,160.81c.1.045.2.092.3.136a1.2,1.2,0,0,1,.7,1.372,1.229,1.229,0,0,1-1.228.939,1.248,1.248,0,0,1-1.173-1.013,1.226,1.226,0,0,1,.827-1.341l.278-.094Z" transform="translate(-408.649 -160.81)" fill="#8ac440"/>
                </g>
                <g id="Group_6" data-name="Group 6" transform="translate(79.796 0.079)">
                  <path id="Path_13" data-name="Path 13" d="M647.2,161.11c.1.045.2.092.3.136a1.2,1.2,0,0,1,.7,1.372,1.229,1.229,0,0,1-1.228.939,1.246,1.246,0,0,1-1.173-1.013,1.226,1.226,0,0,1,.827-1.341l.278-.094Z" transform="translate(-645.779 -161.11)" fill="#8ac440"/>
                </g>
                <g id="Group_7" data-name="Group 7" transform="translate(4.269 3.785)">
                  <path id="Path_14" data-name="Path 14" d="M375.862,177.806a2.489,2.489,0,0,0-2.307-2.433,11.541,11.541,0,0,0-2.409-.039,2.577,2.577,0,0,0-2.49,1.952,7.54,7.54,0,0,0,.386,5.752,1.107,1.107,0,0,1,.058.189H365.05c-.543,0-.706-.113-.8-.661a6.826,6.826,0,0,1-.081-1.11c-.008-1.7,0-3.4-.005-5.1,0-.651-.244-1-.735-1.092a.944.944,0,0,0-1.239,1.023c-.005,2.073-.01,4.146.008,6.222,0,.341-.11.5-.423.567a2.034,2.034,0,0,1-.359.084c-1.134.005-2.27.045-3.453.045v1.569h.323c.769,0,1.54-.005,2.309,0a3.624,3.624,0,0,0,1.824-.436.43.43,0,0,1,.359,0,3.267,3.267,0,0,0,1.711.428c.745,0,1.488-.01,2.233-.01,2.3,0,4.595.026,6.891,0a2.228,2.228,0,0,0,2.351-2.2,15.011,15.011,0,0,0,.047-1.784C375.977,179.785,375.982,178.788,375.862,177.806Zm-1.905,4.374a1.087,1.087,0,0,1-1.152,1.042,1.878,1.878,0,0,1-2.3-1.593,6.157,6.157,0,0,1-.06-3.272,1.874,1.874,0,0,1,1.716-1.559,1.556,1.556,0,0,1,1.855,1.666c.024.556.005,1.115.005,1.674h.037C374.03,180.821,374.038,181.506,373.956,182.181Z" transform="translate(-357.96 -175.233)" fill="#8ac440"/>
                </g>
                <g id="Group_8" data-name="Group 8" transform="translate(63.149 0.285)">
                  <path id="Path_15" data-name="Path 15" d="M587.557,173.47v1.535a6,6,0,0,1-2.349-.194,3.042,3.042,0,0,1-1.792-2.711,12.216,12.216,0,0,1-.061-1.485q-.008-2.85,0-5.7a2.705,2.705,0,0,0-1.015-2.307.988.988,0,0,1,.1-.189,1.586,1.586,0,0,1,2.658.478,3.866,3.866,0,0,1,.22,1.307c.021,2.359,0,4.715.018,7.075a3.737,3.737,0,0,0,.178,1.128,1.432,1.432,0,0,0,1.522,1.06Z" transform="translate(-582.34 -161.897)" fill="#8ac440"/>
                </g>
                <g id="Group_9" data-name="Group 9" transform="translate(34.2 1.349)">
                  <path id="Path_16" data-name="Path 16" d="M474.465,167.162a1.215,1.215,0,0,1-1.207,1.21,1.211,1.211,0,1,1,0-2.422A1.22,1.22,0,0,1,474.465,167.162Z" transform="translate(-472.02 -165.95)" fill="#8ac440"/>
                </g>
                <g id="Group_10" data-name="Group 10" transform="translate(0 14.986)">
                  <path id="Path_17" data-name="Path 17" d="M341.69,219.1a1.168,1.168,0,0,1,1.141-1.176,1.173,1.173,0,0,1,.005,2.346A1.168,1.168,0,0,1,341.69,219.1Z" transform="translate(-341.69 -217.92)" fill="#8ac440"/>
                </g>
                <g id="Group_11" data-name="Group 11" transform="translate(2.978 14.986)">
                  <path id="Path_18" data-name="Path 18" d="M353.04,219.1a1.157,1.157,0,1,1,1.149,1.17A1.169,1.169,0,0,1,353.04,219.1Z" transform="translate(-353.04 -217.92)" fill="#8ac440"/>
                </g>
                <g id="Group_12" data-name="Group 12" transform="translate(43.067 14.986)">
                  <path id="Path_19" data-name="Path 19" d="M508.124,219.105a1.157,1.157,0,0,1-1.155,1.16,1.173,1.173,0,0,1,.026-2.346A1.157,1.157,0,0,1,508.124,219.105Z" transform="translate(-505.81 -217.919)" fill="#8ac440"/>
                </g>
                <g id="Group_13" data-name="Group 13" transform="translate(46.045 14.986)">
                  <path id="Path_20" data-name="Path 20" d="M519.474,219.113a1.159,1.159,0,0,1-1.163,1.152,1.173,1.173,0,1,1,.045-2.346A1.157,1.157,0,0,1,519.474,219.113Z" transform="translate(-517.16 -217.919)" fill="#8ac440"/>
                </g>
              </g>
              <g id="Group_15" data-name="Group 15" transform="translate(5.886 11.756)">
                <path id="Path_21" data-name="Path 21" d="M316.734,207.2H301.64V205.61h14.776Z" transform="translate(-301.64 -205.61)" fill="#8ac440"/>
              </g>
              <g id="Group_16" data-name="Group 16" transform="translate(84.522 11.835)">
                <path id="Path_22" data-name="Path 22" d="M609.1,207.5H601.31V205.91h7.62Z" transform="translate(-601.31 -205.91)" fill="#8ac440"/>
              </g>
              <g id="Group_17" data-name="Group 17" transform="translate(58.231 11.756)">
                <path id="Path_23" data-name="Path 23" d="M514.623,207.276l-13.425-.157-.079-1.509,13.456.079Z" transform="translate(-501.12 -205.61)" fill="#8ac440"/>
              </g>
              <g id="Group_18" data-name="Group 18" transform="translate(0 3.852)">
                <path id="Path_24" data-name="Path 24" d="M285.18,185.012V183.4H284.7v-.443q0-3.239,0-6.482a.976.976,0,1,0-1.952,0q0,4.971.005,9.945a2.461,2.461,0,0,1-.05.59,1.968,1.968,0,0,1-2.22,1.4c-.425-.045-.845-.15-1.267-.228a1.573,1.573,0,0,0,.79.976,3.063,3.063,0,0,0,4.569-1.853,6.529,6.529,0,0,0,.123-1.181c.018-.357.005-.714.005-1.113h.483Z" transform="translate(-279.21 -175.489)" fill="#8ac440"/>
              </g>
            </g>
          </g>
          <g id="Group_22" data-name="Group 22">
            <g id="Group_21" data-name="Group 21">
              <path id="Path_25" data-name="Path 25" d="M86.175,94.46h-37.9A4.977,4.977,0,0,1,43.3,89.483V87.168a4.977,4.977,0,0,1,4.978-4.978H73.9a4.977,4.977,0,0,0,4.978-4.978V53.9a7.292,7.292,0,0,1,7.292-7.292h0a4.977,4.977,0,0,1,4.978,4.978v37.9A4.978,4.978,0,0,1,86.175,94.46Z" transform="translate(-43.3 -46.61)" fill="#8ac440"/>
            </g>
            <circle id="Ellipse_1" data-name="Ellipse 1" cx="4.986" cy="4.986" r="4.986" transform="translate(18.907 18.894)" fill="#2e2c73"/>
          </g>
        </g>
        <path id="Path_26" data-name="Path 26" d="M89.09,182.22" transform="translate(-77.074 -146.635)" fill="#8ac440"/>
      </g>
      <path id="Path_27" data-name="Path 27" d="M86.173,46.62H48.292A4.976,4.976,0,0,0,43.317,51.6V73.354h0V68.106L43.28,89.432a4.982,4.982,0,0,0,4.973,4.994h0a7.3,7.3,0,0,0,7.319-7.287L55.6,73.381V68.132l-.018.008V63.86a4.976,4.976,0,0,1,4.975-4.975H79.115v-4.96a7.291,7.291,0,0,1,7.29-7.29c.108,0,.213.01.318.016A5.4,5.4,0,0,0,86.173,46.62Z" transform="translate(-43.28 -46.617)" fill="#2e2c73"/>
    </g>
  </g>
</svg>
